<?xml version="1.0" encoding="UTF-8"?>
<svg width="28px" height="28px" viewBox="0 0 28 28" version="1.1" xmlns="http://www.w3.org/2000/svg" xmlns:xlink="http://www.w3.org/1999/xlink">
    <!-- Generator: sketchtool 53.2 (72643) - https://sketchapp.com -->
    <title>5C6625C8-EF4F-4DF4-88FF-2CE593E1B90E</title>
    <desc>Created with sketchtool.</desc>
    <g id="Elements" stroke="none" stroke-width="1" fill="none" fill-rule="evenodd">
        <g id="Icons" transform="translate(-788.000000, -441.000000)" fill="#ed3237" fill-rule="nonzero">
            <g id="instagram" transform="translate(788.000000, 441.000000)">
                <path d="M19.25,0 L8.75,0 C3.91825,0 0,3.91825 0,8.75 L0,19.25 C0,24.08175 3.91825,28 8.75,28 L19.25,28 C24.08175,28 28,24.08175 28,19.25 L28,8.75 C28,3.91825 24.08175,0 19.25,0 Z M25.375,19.25 C25.375,22.6275 22.6275,25.375 19.25,25.375 L8.75,25.375 C5.3725,25.375 2.625,22.6275 2.625,19.25 L2.625,8.75 C2.625,5.3725 5.3725,2.625 8.75,2.625 L19.25,2.625 C22.6275,2.625 25.375,5.3725 25.375,8.75 L25.375,19.25 Z" id="Shape"></path>
                <path d="M14,7 C10.13425,7 7,10.13425 7,14 C7,17.86575 10.13425,21 14,21 C17.86575,21 21,17.86575 21,14 C21,10.13425 17.86575,7 14,7 Z M14,18.375 C11.5885,18.375 9.625,16.4115 9.625,14 C9.625,11.58675 11.5885,9.625 14,9.625 C16.4115,9.625 18.375,11.58675 18.375,14 C18.375,16.4115 16.4115,18.375 14,18.375 Z" id="Shape"></path>
                <circle id="Oval" cx="21.525" cy="6.475" r="1"></circle>
            </g>
        </g>
    </g>
</svg>